<?xml version="1.0" encoding="utf-8"?>
<!-- Generator: Adobe Illustrator 21.1.0, SVG Export Plug-In . SVG Version: 6.00 Build 0)  -->
<svg version="1.1" id="Layer_1" xmlns="http://www.w3.org/2000/svg" xmlns:xlink="http://www.w3.org/1999/xlink" x="0px" y="0px"
	 viewBox="0 0 32 32" style="enable-background:new 0 0 32 32;" xml:space="preserve">
<path d="M21.1,3.6c-0.1,0.1-3.4,2.9-3.4,8.4c0,2.7,1.8,3.9,3.2,4.3v11.6c0,0.4,0.3,0.6,0.6,0.6c0.4,0,0.6-0.3,0.6-0.6V4.1
	c0-0.2-0.1-0.5-0.4-0.6C21.5,3.4,21.2,3.4,21.1,3.6L21.1,3.6z M20.8,14.9c-0.8-0.3-1.9-1.1-1.9-2.9c0-2.9,1.1-5,1.9-6.2V14.9
	L20.8,14.9z M20.8,14.9"/>
<path d="M15.5,3.4c-0.4,0-0.6,0.3-0.6,0.6v3.1h-1.3V4.1c0-0.4-0.3-0.6-0.6-0.6c-0.4,0-0.6,0.3-0.6,0.6v3.1H11V4.1
	c0-0.4-0.3-0.6-0.6-0.6c-0.4,0-0.6,0.3-0.6,0.6v5.7c0,1.6,1.1,2.9,2.6,3.1v15c0,0.4,0.3,0.6,0.6,0.6c0.4,0,0.6-0.3,0.6-0.6V13
	c1.5-0.3,2.6-1.6,2.6-3.1V4.1C16.2,3.7,15.9,3.4,15.5,3.4L15.5,3.4z M14.9,9.8c0,1.1-0.9,1.9-1.9,1.9c-1.1,0-1.9-0.9-1.9-1.9V8.5
	h3.9V9.8z M14.9,9.8"/>
</svg>
