<?xml version="1.0" encoding="utf-8"?>
<!-- Generator: Adobe Illustrator 22.1.0, SVG Export Plug-In . SVG Version: 6.00 Build 0)  -->
<svg version="1.1" id="Layer_1" xmlns="http://www.w3.org/2000/svg" xmlns:xlink="http://www.w3.org/1999/xlink" x="0px" y="0px"
	 viewBox="0 0 222.7 147" style="enable-background:new 0 0 222.7 147;" xml:space="preserve">
<style type="text/css">
	.st0{opacity:0.49;}
	.st1{fill:#FFFFFF;}
	.st2{fill:#FFFFFF;stroke:#FFFFFF;stroke-width:0.829;stroke-miterlimit:10;}
	.st3{fill:#EE3273;}
	.st4{clip-path:url(#SVGID_2_);}
	.st5{fill:url(#SVGID_3_);}
	.st6{fill:url(#SVGID_4_);}
	.st7{fill:url(#SVGID_5_);}
	.st8{fill:#51B848;}
	.st9{fill:url(#SVGID_6_);}
	.st10{fill:url(#SVGID_7_);}
</style>
<rect x="-1.9" y="-0.8" class="st0" width="226.1" height="148.5"/>
<g>
	<g>
		<path class="st1" d="M84.7,27.2c7.7,0,10.5,0.9,13.1,4.2c2.7,3.3,3.4,6.6,3.4,14.7c0,8.4-0.8,11.7-3.3,14.6c-2.3,2.6-6.2,4-11.5,4
			h-1.2v25.7h-8.8V27.2H84.7z M86.4,56.6c5.2,0,6.3-1.7,6.3-10.6c0-8.8-1-10.5-6.3-10.5h-1.2v21.1H86.4z"/>
		<path class="st1" d="M129.2,27.2v8.2h-12.5v17.7h8.7v8.2h-8.7v20.8H130v8.2h-22.1V27.2H129.2z"/>
		<path class="st1" d="M142.7,35.4h-8.2v-8.2h25.7v8.2h-8.6v55h-8.9V35.4z"/>
		<path class="st1" d="M174.7,90.4h-8.8V27.2h8.8V90.4z"/>
		<path class="st1" d="M188.7,35.4h-8.2v-8.2h25.7v8.2h-8.6v55h-8.9V35.4z"/>
		<g>
			<path class="st2" d="M95.1,106.4c0,2-0.3,3.7-1,5.1c-0.6,1.4-1.5,2.6-2.7,3.6c-1.1,0.9-2.5,1.6-4,2.1s-3.2,0.7-5,0.7h-6.5v-23
				h6.5c1.8,0,3.4,0.2,5,0.7c1.5,0.4,2.9,1.1,4,2.1c1.1,0.9,2,2.1,2.7,3.6C94.8,102.7,95.1,104.4,95.1,106.4z M76.7,95.6v21.6h5.6
				c1.7,0,3.3-0.2,4.7-0.6c1.5-0.4,2.8-1.1,3.8-1.9c1.1-0.9,1.9-2,2.6-3.3c0.6-1.4,0.9-3,0.9-4.9s-0.3-3.5-0.9-4.9s-1.5-2.5-2.6-3.4
				s-2.4-1.5-3.8-1.9c-1.5-0.4-3.1-0.6-4.7-0.6L76.7,95.6L76.7,95.6z"/>
			<path class="st2" d="M100.9,117.8V94.9h13.4v0.6h-12.7v10.1h11.9v0.6h-11.9v10.9h13.2v0.6h-13.9V117.8z"/>
			<path class="st2" d="M120,117.8V94.9h0.7v22.2h11.4v0.6H120V117.8z"/>
			<path class="st2" d="M136.1,117.8V94.9h0.7v22.9H136.1z"/>
			<path class="st2" d="M159.4,117.8c-1.4,0.4-3,0.6-4.8,0.6s-3.5-0.3-5-0.9s-2.8-1.5-3.8-2.6c-1.1-1.1-1.9-2.4-2.4-3.8
				c-0.6-1.5-0.9-3.1-0.9-4.8c0-1.7,0.3-3.3,0.9-4.8c0.6-1.5,1.4-2.7,2.4-3.8c1-1.1,2.3-1.9,3.8-2.5s3.1-0.9,4.9-0.9
				c1.6,0,3,0.2,4.3,0.7s2.4,1.1,3.4,1.9l-0.5,0.5c-0.4-0.4-0.9-0.8-1.5-1.1c-0.6-0.3-1.2-0.6-1.8-0.8c-0.6-0.2-1.3-0.4-2-0.5
				s-1.3-0.2-1.9-0.2c-1.7,0-3.2,0.3-4.6,0.9c-1.4,0.6-2.6,1.4-3.5,2.4c-1,1-1.7,2.2-2.3,3.6c-0.5,1.4-0.8,2.9-0.8,4.4
				c0,1.6,0.3,3.1,0.8,4.5s1.3,2.6,2.2,3.7c1,1,2.2,1.9,3.6,2.5c1.4,0.6,3,0.9,4.8,0.9c1.6,0,2.9-0.2,4.1-0.5
				c1.2-0.3,2.3-0.7,3.3-1.2v-9h-5.9v-0.6h6.7v10C162,117,160.8,117.4,159.4,117.8z"/>
			<path class="st2" d="M184.6,117.8v-11.5h-15.4v11.5h-0.7V94.9h0.7v10.7h15.4V94.9h0.7v22.9H184.6z"/>
			<path class="st2" d="M197,95.6v22.2h-0.7V95.6h-7.8V95h16.3v0.6H197z"/>
		</g>
		<circle class="st3" cx="170.3" cy="16.3" r="5.9"/>
	</g>
	<path class="st1" d="M57.8,26.9c-0.6,0.5-14.2,12-14.2,34.9c0,11.1,7.7,16.2,13.2,17.8V128c0,1.5,1.2,2.6,2.6,2.6
		c1.5,0,2.6-1.2,2.6-2.6V28.9c0-1-0.6-2-1.5-2.4C59.7,26.1,58.6,26.2,57.8,26.9L57.8,26.9z M56.8,74c-3.2-1.4-7.9-4.6-7.9-12.2
		c0-12.3,4.4-20.9,7.9-25.9V74L56.8,74z"/>
	<path class="st1" d="M39,26.2c-1.5,0-2.6,1.2-2.6,2.6v13.1H31v-13c0-1.5-1.2-2.6-2.6-2.6c-1.5,0-2.6,1.2-2.6,2.6V42h-5.4V28.9
		c0-1.5-1.2-2.6-2.6-2.6c-1.5,0-2.6,1.2-2.6,2.6v23.9c0,6.5,4.6,11.9,10.7,13.1v62.2c0,1.5,1.2,2.6,2.6,2.6c1.5,0,2.6-1.2,2.6-2.6
		V65.8c6.1-1.2,10.7-6.6,10.7-13.1V28.9C41.6,27.4,40.4,26.2,39,26.2L39,26.2z M36.3,52.8c0,4.4-3.6,8.1-8.1,8.1
		c-4.4,0-8.1-3.6-8.1-8.1v-5.5h16.1L36.3,52.8L36.3,52.8z"/>
	<g>
		<g>
			<defs>
				<path id="SVGID_1_" d="M203.6,129.7h-127c-0.7,0-1.3-0.6-1.3-1.3l0,0c0-0.7,0.6-1.3,1.3-1.3h126.9c0.7,0,1.3,0.6,1.3,1.3l0,0
					C204.8,129.1,204.3,129.7,203.6,129.7z"/>
			</defs>
			<clipPath id="SVGID_2_">
				<use xlink:href="#SVGID_1_"  style="overflow:visible;"/>
			</clipPath>
			<g class="st4">
				
					<linearGradient id="SVGID_3_" gradientUnits="userSpaceOnUse" x1="-52.5758" y1="-511.2574" x2="-19.7658" y2="-468.4293" gradientTransform="matrix(0 1 1 0 642.0889 160.4806)">
					<stop  offset="0" style="stop-color:#EF4276"/>
					<stop  offset="1" style="stop-color:#B81F53"/>
				</linearGradient>
				<rect x="91.8" y="126.1" class="st5" width="131.7" height="4.6"/>
				
					<linearGradient id="SVGID_4_" gradientUnits="userSpaceOnUse" x1="-16.6711" y1="-442.833" x2="-32.8423" y2="-487.2306" gradientTransform="matrix(0 1 1 0 642.0889 160.4806)">
					<stop  offset="0" style="stop-color:#B52A73"/>
					<stop  offset="1" style="stop-color:#792982"/>
				</linearGradient>
				<polygon class="st6" points="108.3,130.7 183.3,127.4 222.9,126.1 91.2,126.1 91.2,130.7 				"/>
				
					<linearGradient id="SVGID_5_" gradientUnits="userSpaceOnUse" x1="-47.2665" y1="-564.8408" x2="-13.6968" y2="-495.058" gradientTransform="matrix(0 1 1 0 642.0889 160.4806)">
					<stop  offset="0" style="stop-color:#286BA3"/>
					<stop  offset="1" style="stop-color:#00BEDA"/>
				</linearGradient>
				<polygon class="st7" points="90.4,130.7 158.1,126.1 59.7,126.1 59.7,130.7 				"/>
				<polygon class="st8" points="111.1,126.9 74.1,125.4 74.1,130.4 				"/>
				
					<linearGradient id="SVGID_6_" gradientUnits="userSpaceOnUse" x1="-45.3647" y1="-478.3847" x2="-21.3799" y2="-450.236" gradientTransform="matrix(0 1 1 0 642.0889 160.4806)">
					<stop  offset="0" style="stop-color:#F58436"/>
					<stop  offset="1" style="stop-color:#EE5D32"/>
				</linearGradient>
				<polygon class="st9" points="192.2,130.7 208.7,126.6 186.4,126.1 150.6,130.7 				"/>
				
					<linearGradient id="SVGID_7_" gradientUnits="userSpaceOnUse" x1="-41.9394" y1="-458.5393" x2="-24.6637" y2="-444.2393" gradientTransform="matrix(0 1 1 0 642.0889 160.4806)">
					<stop  offset="0" style="stop-color:#F2CA3A"/>
					<stop  offset="1" style="stop-color:#F79131"/>
				</linearGradient>
				<polygon class="st10" points="204.8,129.9 204.7,126.2 178,129.6 				"/>
			</g>
		</g>
	</g>
</g>
</svg>
