<?xml version="1.0" encoding="utf-8"?>
<!-- Generator: Adobe Illustrator 22.1.0, SVG Export Plug-In . SVG Version: 6.00 Build 0)  -->
<svg version="1.1" id="Layer_1" xmlns="http://www.w3.org/2000/svg" xmlns:xlink="http://www.w3.org/1999/xlink" x="0px" y="0px"
	 viewBox="0 0 198.4 125.7" style="enable-background:new 0 0 198.4 125.7;" xml:space="preserve">
<style type="text/css">
	.st0{fill:#FFFFFF;}
	.st1{fill:#FFFFFF;stroke:#FFFFFF;stroke-width:0.829;stroke-miterlimit:10;}
	.st2{fill:#EE3273;}
	.st3{clip-path:url(#SVGID_2_);}
	.st4{fill:url(#SVGID_3_);}
	.st5{fill:url(#SVGID_4_);}
	.st6{fill:url(#SVGID_5_);}
	.st7{fill:#51B848;}
	.st8{fill:url(#SVGID_6_);}
	.st9{fill:url(#SVGID_7_);}
</style>
<g>
	<g>
		<path class="st0" d="M75,18.5c7.7,0,10.5,0.9,13.1,4.2c2.7,3.3,3.4,6.6,3.4,14.7c0,8.4-0.8,11.7-3.3,14.6C85.9,54.6,82,56,76.7,56
			h-1.2v25.7h-8.8V18.5H75z M76.7,47.9c5.2,0,6.3-1.7,6.3-10.6c0-8.8-1-10.5-6.3-10.5h-1.2v21.1H76.7z"/>
		<path class="st0" d="M119.5,18.5v8.2H107v17.7h8.7v8.2H107v20.8h13.3v8.2H98.2V18.5H119.5z"/>
		<path class="st0" d="M133,26.7h-8.2v-8.2h25.7v8.2h-8.6v55H133V26.7z"/>
		<path class="st0" d="M165,81.7h-8.8V18.5h8.8V81.7z"/>
		<path class="st0" d="M179,26.7h-8.2v-8.2h25.7v8.2h-8.6v55H179V26.7z"/>
		<g>
			<path class="st1" d="M85.4,97.7c0,2-0.3,3.7-1,5.1c-0.6,1.4-1.5,2.6-2.7,3.6c-1.1,0.9-2.5,1.6-4,2.1c-1.5,0.5-3.2,0.7-5,0.7h-6.5
				V86.2h6.5c1.8,0,3.4,0.2,5,0.7c1.5,0.4,2.9,1.1,4,2.1c1.1,0.9,2,2.1,2.7,3.6C85.1,94,85.4,95.7,85.4,97.7z M67,86.9v21.6h5.6
				c1.7,0,3.3-0.2,4.7-0.6c1.5-0.4,2.8-1.1,3.8-1.9c1.1-0.9,1.9-2,2.6-3.3c0.6-1.4,0.9-3,0.9-4.9c0-1.9-0.3-3.5-0.9-4.9
				c-0.6-1.4-1.5-2.5-2.6-3.4c-1.1-0.9-2.4-1.5-3.8-1.9c-1.5-0.4-3.1-0.6-4.7-0.6H67z"/>
			<path class="st1" d="M91.2,109.1V86.2h13.4v0.6H91.9v10.1h11.9v0.6H91.9v10.9h13.2v0.6H91.2z"/>
			<path class="st1" d="M110.3,109.1V86.2h0.7v22.2h11.4v0.6H110.3z"/>
			<path class="st1" d="M126.4,109.1V86.2h0.7v22.9H126.4z"/>
			<path class="st1" d="M149.7,109.1c-1.4,0.4-3,0.6-4.8,0.6s-3.5-0.3-5-0.9c-1.5-0.6-2.8-1.5-3.8-2.6c-1.1-1.1-1.9-2.4-2.4-3.8
				c-0.6-1.5-0.9-3.1-0.9-4.8c0-1.7,0.3-3.3,0.9-4.8c0.6-1.5,1.4-2.7,2.4-3.8c1-1.1,2.3-1.9,3.8-2.5c1.5-0.6,3.1-0.9,4.9-0.9
				c1.6,0,3,0.2,4.3,0.7c1.3,0.5,2.4,1.1,3.4,1.9l-0.5,0.5c-0.4-0.4-0.9-0.8-1.5-1.1c-0.6-0.3-1.2-0.6-1.8-0.8
				c-0.6-0.2-1.3-0.4-2-0.5c-0.7-0.1-1.3-0.2-1.9-0.2c-1.7,0-3.2,0.3-4.6,0.9c-1.4,0.6-2.6,1.4-3.5,2.4c-1,1-1.7,2.2-2.3,3.6
				c-0.5,1.4-0.8,2.9-0.8,4.4c0,1.6,0.3,3.1,0.8,4.5c0.5,1.4,1.3,2.6,2.2,3.7c1,1,2.2,1.9,3.6,2.5c1.4,0.6,3,0.9,4.8,0.9
				c1.6,0,2.9-0.2,4.1-0.5c1.2-0.3,2.3-0.7,3.3-1.2v-9h-5.9v-0.6h6.7v10C152.3,108.3,151.1,108.7,149.7,109.1z"/>
			<path class="st1" d="M174.9,109.1V97.6h-15.4v11.5h-0.7V86.2h0.7v10.7h15.4V86.2h0.7v22.9H174.9z"/>
			<path class="st1" d="M187.3,86.9v22.2h-0.7V86.9h-7.8v-0.6h16.3v0.6H187.3z"/>
		</g>
		<circle class="st2" cx="160.6" cy="7.6" r="5.9"/>
	</g>
	<path class="st0" d="M48.1,18.2c-0.6,0.5-14.2,12-14.2,34.9c0,11.1,7.7,16.2,13.2,17.8v48.4c0,1.5,1.2,2.6,2.6,2.6
		c1.5,0,2.6-1.2,2.6-2.6V20.2c0-1-0.6-2-1.5-2.4C50,17.4,48.9,17.5,48.1,18.2L48.1,18.2z M47.1,65.3c-3.2-1.4-7.9-4.6-7.9-12.2
		c0-12.3,4.4-20.9,7.9-25.9V65.3L47.1,65.3z M47.1,65.3"/>
	<path class="st0" d="M29.3,17.5c-1.5,0-2.6,1.2-2.6,2.6v13.1h-5.4V20.2c0-1.5-1.2-2.6-2.6-2.6c-1.5,0-2.6,1.2-2.6,2.6v13.1h-5.4
		V20.2c0-1.5-1.2-2.6-2.6-2.6c-1.5,0-2.6,1.2-2.6,2.6v23.9c0,6.5,4.6,11.9,10.7,13.1v62.2c0,1.5,1.2,2.6,2.6,2.6
		c1.5,0,2.6-1.2,2.6-2.6V57.1c6.1-1.2,10.7-6.6,10.7-13.1V20.2C31.9,18.7,30.7,17.5,29.3,17.5L29.3,17.5z M26.6,44.1
		c0,4.4-3.6,8.1-8.1,8.1c-4.4,0-8.1-3.6-8.1-8.1v-5.5h16.1V44.1z M26.6,44.1"/>
	<g>
		<defs>
			<path id="SVGID_1_" d="M193.9,121H66.9c-0.7,0-1.3-0.6-1.3-1.3v0c0-0.7,0.6-1.3,1.3-1.3h126.9c0.7,0,1.3,0.6,1.3,1.3v0
				C195.1,120.4,194.6,121,193.9,121z"/>
		</defs>
		<clipPath id="SVGID_2_">
			<use xlink:href="#SVGID_1_"  style="overflow:visible;"/>
		</clipPath>
		<g class="st3">
			
				<linearGradient id="SVGID_3_" gradientUnits="userSpaceOnUse" x1="24.7515" y1="1202.2528" x2="57.5615" y2="1159.4247" gradientTransform="matrix(0 1 -1 0 1323.4222 74.4228)">
				<stop  offset="0" style="stop-color:#EF4276"/>
				<stop  offset="1" style="stop-color:#B81F53"/>
			</linearGradient>
			<rect x="82.1" y="117.4" class="st4" width="131.7" height="4.6"/>
			
				<linearGradient id="SVGID_4_" gradientUnits="userSpaceOnUse" x1="60.6422" y1="1133.8257" x2="44.471" y2="1178.2233" gradientTransform="matrix(0 1 -1 0 1323.4222 74.4228)">
				<stop  offset="0" style="stop-color:#B52A73"/>
				<stop  offset="1" style="stop-color:#792982"/>
			</linearGradient>
			<polygon class="st5" points="98.6,122 173.6,118.7 213.2,117.4 81.5,117.4 81.5,122 			"/>
			
				<linearGradient id="SVGID_5_" gradientUnits="userSpaceOnUse" x1="30.0461" y1="1255.8308" x2="63.6158" y2="1186.0481" gradientTransform="matrix(0 1 -1 0 1323.4222 74.4228)">
				<stop  offset="0" style="stop-color:#286BA3"/>
				<stop  offset="1" style="stop-color:#00BEDA"/>
			</linearGradient>
			<polygon class="st6" points="80.7,122 148.4,117.4 50,117.4 50,122 			"/>
			<polygon class="st7" points="101.4,118.2 64.4,116.7 64.4,121.7 			"/>
			
				<linearGradient id="SVGID_6_" gradientUnits="userSpaceOnUse" x1="31.9509" y1="1169.3696" x2="55.9357" y2="1141.2209" gradientTransform="matrix(0 1 -1 0 1323.4222 74.4228)">
				<stop  offset="0" style="stop-color:#F58436"/>
				<stop  offset="1" style="stop-color:#EE5D32"/>
			</linearGradient>
			<polygon class="st8" points="182.5,122 199,117.9 176.7,117.4 140.9,122 			"/>
			
				<linearGradient id="SVGID_7_" gradientUnits="userSpaceOnUse" x1="35.4025" y1="1149.5497" x2="52.6782" y2="1135.2496" gradientTransform="matrix(0 1 -1 0 1323.4222 74.4228)">
				<stop  offset="0" style="stop-color:#F2CA3A"/>
				<stop  offset="1" style="stop-color:#F79131"/>
			</linearGradient>
			<polygon class="st9" points="195.1,121.2 195,117.5 168.3,120.9 			"/>
		</g>
	</g>
</g>
</svg>
